<?xml version="1.0" encoding="UTF-8" standalone="no"?>
<svg
   xmlns:dc="http://purl.org/dc/elements/1.1/"
   xmlns:cc="http://creativecommons.org/ns#"
   xmlns:rdf="http://www.w3.org/1999/02/22-rdf-syntax-ns#"
   xmlns:svg="http://www.w3.org/2000/svg"
   xmlns="http://www.w3.org/2000/svg"
   viewBox="0 0 266.66666 266.66666"
   height="266.66666"
   width="266.66666"
   xml:space="preserve"
   id="svg2"
   version="1.1"><metadata
     id="metadata8"><rdf:RDF><cc:Work
         rdf:about=""><dc:format>image/svg+xml</dc:format><dc:type
           rdf:resource="http://purl.org/dc/dcmitype/StillImage" /></cc:Work></rdf:RDF></metadata><defs
     id="defs6"><clipPath
       id="clipPath18"
       clipPathUnits="userSpaceOnUse"><path
         id="path16"
         d="M 0,200 H 200 V 0 H 0 Z" /></clipPath></defs><g
     transform="matrix(1.3333333,0,0,-1.3333333,0,266.66667)"
     id="g10"><g
       id="g12"><g
         clip-path="url(#clipPath18)"
         id="g14"><g
           transform="translate(73.1733,114.563)"
           id="g20"><path
             id="path22"
             style="fill:#ffffff;fill-opacity:1;fill-rule:nonzero;stroke:none"
             d="m 0,0 c 0,-3.766 -3.064,-6.831 -6.831,-6.831 h -0.378 c -3.767,0 -6.831,3.065 -6.831,6.831 V 21.617 H -25.721 V 0 c 0,-10.208 8.304,-18.511 18.512,-18.511 h 0.378 c 10.207,0 18.512,8.303 18.512,18.511 V 21.617 H 0 Z" /></g><path
           id="path24"
           style="fill:#ffffff;fill-opacity:1;fill-rule:nonzero;stroke:none"
           d="m 181.037,97.309 h 11.68 v 53.783 h -11.68 z" /><g
           transform="translate(110.2412,108.0469)"
           id="g26"><path
             id="path28"
             style="fill:#ffffff;fill-opacity:1;fill-rule:nonzero;stroke:none"
             d="m 0,0 c -4.95,0 -8.978,4.027 -8.978,8.977 0,4.951 4.028,8.978 8.978,8.978 4.951,0 8.979,-4.027 8.979,-8.978 C 8.979,4.027 4.951,0 0,0 m 0,29.954 c -11.585,0 -20.977,-9.391 -20.977,-20.977 V -28.817 H -8.832 V -10.03 C -6.145,-11.281 -3.16,-12 0,-12 11.586,-12 20.979,-2.607 20.979,8.977 20.979,20.563 11.586,29.954 0,29.954" /></g><g
           transform="translate(44.1606,136.1802)"
           id="g30"><path
             id="path32"
             style="fill:#ffffff;fill-opacity:1;fill-rule:nonzero;stroke:none"
             d="m 0,0 h -15.492 l -10.489,-11.321 v 26.232 h -11.672 v -53.81 h 11.672 v 10.683 l 5.307,5.763 9.209,-16.446 H 2.546 l -15.09,25.276 z" /></g><g
           transform="translate(155.584,108.1016)"
           id="g34"><path
             id="path36"
             style="fill:#ffffff;fill-opacity:1;fill-rule:nonzero;stroke:none"
             d="m 0,0 c -4.924,0 -8.915,3.991 -8.915,8.915 0,4.924 3.991,8.915 8.915,8.915 4.924,0 8.916,-3.991 8.916,-8.915 C 8.916,3.991 4.924,0 0,0 m 0,29.9 c -11.59,0 -20.984,-9.396 -20.984,-20.985 0,-11.59 9.394,-20.985 20.984,-20.985 11.59,0 20.985,9.395 20.985,20.985 C 20.985,20.504 11.59,29.9 0,29.9" /></g><g
           transform="translate(173.6406,141.6401)"
           id="g38"><path
             id="path40"
             style="fill:#ffffff;fill-opacity:1;fill-rule:nonzero;stroke:none"
             d="M 0,0 C -3.656,6.159 -10.374,10.336 -18.057,10.336 -25.76,10.336 -32.493,6.187 -36.143,0 Z" /></g></g></g></g></svg>